<?xml version="1.0" encoding="UTF-8"?>
<svg width="226px" height="57px" viewBox="0 0 226 57" version="1.1" xmlns="http://www.w3.org/2000/svg" xmlns:xlink="http://www.w3.org/1999/xlink">
    <!-- Generator: Sketch 53.2 (72643) - https://sketchapp.com -->
    <title>logo</title>
    <desc>Created with Sketch.</desc>
    <defs>
        <path d="M14,2 L42,2 C48.627417,2 54,7.372583 54,14 L54,42 C54,48.627417 48.627417,54 42,54 L22,54 C10.954305,54 2,45.045695 2,34 L2,14 C2,7.372583 7.372583,2 14,2 Z" id="path-1"></path>
        <filter x="-9.6%" y="-9.6%" width="126.9%" height="126.9%" filterUnits="objectBoundingBox" id="filter-2">
            <feOffset dx="2" dy="2" in="SourceAlpha" result="shadowOffsetOuter1"></feOffset>
            <feGaussianBlur stdDeviation="2" in="shadowOffsetOuter1" result="shadowBlurOuter1"></feGaussianBlur>
            <feColorMatrix values="0 0 0 0 0.0252505915   0 0 0 0 0.346354167   0 0 0 0 0.280204074  0 0 0 0.1 0" type="matrix" in="shadowBlurOuter1"></feColorMatrix>
        </filter>
    </defs>
    <g id="logo" stroke="none" stroke-width="1" fill="none" fill-rule="evenodd">
        <path d="M78.8691406,39.3515625 C72.9365234,39.3515625 69.1865234,35.1621094 69.1865234,28.4238281 C69.1865234,21.7294922 72.9658203,17.5107422 78.8691406,17.5107422 C83.6591797,17.5107422 87.2773438,20.4550781 87.8339844,24.8642578 L84.5820312,24.8642578 C83.9960938,22.1542969 81.7402344,20.3818359 78.8691406,20.3818359 C75.03125,20.3818359 72.5410156,23.53125 72.5410156,28.4238281 C72.5410156,33.3603516 75.0019531,36.4804688 78.8837891,36.4804688 C81.828125,36.4804688 83.9228516,34.9716797 84.5820312,32.4228516 L87.8486328,32.4228516 C87.0429688,36.7880859 83.7324219,39.3515625 78.8691406,39.3515625 Z M97.0478516,39.2929688 C92.6386719,39.2929688 89.7382812,36.2607422 89.7382812,31.2949219 C89.7382812,26.34375 92.6533203,23.3115234 97.0478516,23.3115234 C101.442383,23.3115234 104.357422,26.34375 104.357422,31.2949219 C104.357422,36.2607422 101.457031,39.2929688 97.0478516,39.2929688 Z M97.0478516,36.6855469 C99.5380859,36.6855469 101.134766,34.7226562 101.134766,31.2949219 C101.134766,27.8818359 99.5234375,25.9189453 97.0478516,25.9189453 C94.5722656,25.9189453 92.9609375,27.8818359 92.9609375,31.2949219 C92.9609375,34.7226562 94.5722656,36.6855469 97.0478516,36.6855469 Z M119.958008,23.5898438 L114.435547,39 L111.037109,39 L105.485352,23.5898438 L108.854492,23.5898438 L112.72168,35.9091797 L112.780273,35.9091797 L116.647461,23.5898438 L119.958008,23.5898438 Z M128.219727,25.8603516 C126.007812,25.8603516 124.455078,27.5449219 124.293945,29.8740234 L131.999023,29.8740234 C131.925781,27.515625 130.431641,25.8603516 128.219727,25.8603516 Z M131.984375,34.4736328 L134.987305,34.4736328 C134.547852,37.2861328 131.881836,39.2929688 128.351562,39.2929688 C123.825195,39.2929688 121.085938,36.2314453 121.085938,31.3681641 C121.085938,26.5341797 123.869141,23.3115234 128.219727,23.3115234 C132.49707,23.3115234 135.163086,26.3291016 135.163086,31.0019531 L135.163086,32.0859375 L124.279297,32.0859375 L124.279297,32.2763672 C124.279297,34.9570312 125.890625,36.7294922 128.424805,36.7294922 C130.226562,36.7294922 131.55957,35.8212891 131.984375,34.4736328 Z M137.609375,39 L137.609375,23.5898438 L140.626953,23.5898438 L140.626953,26.2119141 L140.700195,26.2119141 C141.212891,24.4101562 142.589844,23.3408203 144.40625,23.3408203 C144.860352,23.3408203 145.255859,23.4140625 145.490234,23.4580078 L145.490234,26.4023438 C145.241211,26.2998047 144.68457,26.2265625 144.069336,26.2265625 C142.033203,26.2265625 140.773438,27.5888672 140.773438,29.7714844 L140.773438,39 L137.609375,39 Z M156.31543,39 L147.833984,39 L147.833984,17.8623047 L156.271484,17.8623047 C160.021484,17.8623047 162.482422,19.9423828 162.482422,23.1357422 C162.482422,25.3769531 160.827148,27.3837891 158.717773,27.7353516 L158.717773,27.8525391 C161.588867,28.1748047 163.522461,30.2109375 163.522461,33.0234375 C163.522461,36.7441406 160.8125,39 156.31543,39 Z M151.115234,20.5429688 L151.115234,26.8564453 L154.791992,26.8564453 C157.633789,26.8564453 159.201172,25.6845703 159.201172,23.5898438 C159.201172,21.6269531 157.853516,20.5429688 155.480469,20.5429688 L151.115234,20.5429688 Z M151.115234,36.3193359 L155.641602,36.3193359 C158.600586,36.3193359 160.167969,35.1035156 160.167969,32.8183594 C160.167969,30.5332031 158.556641,29.3613281 155.451172,29.3613281 L151.115234,29.3613281 L151.115234,36.3193359 Z M172.414062,25.8603516 C170.202148,25.8603516 168.649414,27.5449219 168.488281,29.8740234 L176.193359,29.8740234 C176.120117,27.515625 174.625977,25.8603516 172.414062,25.8603516 Z M176.178711,34.4736328 L179.181641,34.4736328 C178.742188,37.2861328 176.076172,39.2929688 172.545898,39.2929688 C168.019531,39.2929688 165.280273,36.2314453 165.280273,31.3681641 C165.280273,26.5341797 168.063477,23.3115234 172.414062,23.3115234 C176.691406,23.3115234 179.357422,26.3291016 179.357422,31.0019531 L179.357422,32.0859375 L168.473633,32.0859375 L168.473633,32.2763672 C168.473633,34.9570312 170.084961,36.7294922 172.619141,36.7294922 C174.420898,36.7294922 175.753906,35.8212891 176.178711,34.4736328 Z M182.726562,19.9423828 L185.905273,19.9423828 L185.905273,23.5898438 L188.834961,23.5898438 L188.834961,26.0947266 L185.905273,26.0947266 L185.905273,34.5908203 C185.905273,35.9238281 186.491211,36.5244141 187.780273,36.5244141 C188.102539,36.5244141 188.615234,36.4951172 188.820312,36.4511719 L188.820312,38.9560547 C188.46875,39.0439453 187.765625,39.1025391 187.0625,39.1025391 C183.942383,39.1025391 182.726562,37.9160156 182.726562,34.9423828 L182.726562,26.0947266 L180.485352,26.0947266 L180.485352,23.5898438 L182.726562,23.5898438 L182.726562,19.9423828 Z M192.350586,19.9423828 L195.529297,19.9423828 L195.529297,23.5898438 L198.458984,23.5898438 L198.458984,26.0947266 L195.529297,26.0947266 L195.529297,34.5908203 C195.529297,35.9238281 196.115234,36.5244141 197.404297,36.5244141 C197.726562,36.5244141 198.239258,36.4951172 198.444336,36.4511719 L198.444336,38.9560547 C198.092773,39.0439453 197.389648,39.1025391 196.686523,39.1025391 C193.566406,39.1025391 192.350586,37.9160156 192.350586,34.9423828 L192.350586,26.0947266 L190.109375,26.0947266 L190.109375,23.5898438 L192.350586,23.5898438 L192.350586,19.9423828 Z M207.49707,25.8603516 C205.285156,25.8603516 203.732422,27.5449219 203.571289,29.8740234 L211.276367,29.8740234 C211.203125,27.515625 209.708984,25.8603516 207.49707,25.8603516 Z M211.261719,34.4736328 L214.264648,34.4736328 C213.825195,37.2861328 211.15918,39.2929688 207.628906,39.2929688 C203.102539,39.2929688 200.363281,36.2314453 200.363281,31.3681641 C200.363281,26.5341797 203.146484,23.3115234 207.49707,23.3115234 C211.774414,23.3115234 214.44043,26.3291016 214.44043,31.0019531 L214.44043,32.0859375 L203.556641,32.0859375 L203.556641,32.2763672 C203.556641,34.9570312 205.167969,36.7294922 207.702148,36.7294922 C209.503906,36.7294922 210.836914,35.8212891 211.261719,34.4736328 Z M216.886719,39 L216.886719,23.5898438 L219.904297,23.5898438 L219.904297,26.2119141 L219.977539,26.2119141 C220.490234,24.4101562 221.867188,23.3408203 223.683594,23.3408203 C224.137695,23.3408203 224.533203,23.4140625 224.767578,23.4580078 L224.767578,26.4023438 C224.518555,26.2998047 223.961914,26.2265625 223.34668,26.2265625 C221.310547,26.2265625 220.050781,27.5888672 220.050781,29.7714844 L220.050781,39 L216.886719,39 Z" id="CoverBetter" fill="#FFFFFF" fill-rule="nonzero"></path>
        <g id="icon">
            <path d="M12,5 L40,5 C46.627417,5 52,10.372583 52,17 L52,45 C52,51.627417 46.627417,57 40,57 L20,57 C8.954305,57 1.3527075e-15,48.045695 0,37 L0,17 C-8.11624501e-16,10.372583 5.372583,5 12,5 Z" id="Rectangle-2" fill="#302901" opacity="0.5"></path>
            <g id="Rectangle">
                <use fill="black" fill-opacity="1" filter="url(#filter-2)" xlink:href="#path-1"></use>
                <use fill="#FFE800" fill-rule="evenodd" xlink:href="#path-1"></use>
            </g>
            <path d="M61.7990229,6.46405229 L34.1965789,42.2973856 C33.9782993,42.5182073 33.6211145,43 33.1845554,43 C32.7281527,43 32.4304987,42.6788049 32.1725319,42.4178338 C31.9145652,42.1568627 16.5159335,27.1811391 16.5159335,27.1811391 L16.2182796,26.8800187 C16.099218,26.6993464 16,26.4785247 16,26.2376284 C16,25.996732 16.099218,25.7759104 16.2182796,25.5952381 C16.297654,25.5149393 16.3571848,25.4547152 16.4365591,25.3543417 C17.9645161,23.7282913 21.0601174,20.4360411 21.2585533,20.2352941 C21.5165201,19.9743231 21.7347997,19.6330532 22.211046,19.6330532 C22.7071359,19.6330532 23.0246335,20.0546218 23.2627567,20.2955182 C23.5008798,20.5364146 32.1923755,28.9878618 32.1923755,28.9878618 L54.2782995,0.281045752 C54.4767355,0.120448179 54.7148586,0 54.9728254,0 C55.2307922,0 55.4689154,0.100373483 55.6673513,0.260971055 L61.7394921,5.09897292 C61.8982409,5.29971989 61.9974589,5.54061625 61.9974589,5.8015873 C62.0173025,6.06255836 61.9180845,6.28338002 61.7990229,6.46405229 Z" id="Path" fill="#302901" fill-rule="nonzero"></path>
            <g id="Group" transform="translate(13.000000, 13.000000)"></g>
        </g>
    </g>
</svg>